<svg xmlns="http://www.w3.org/2000/svg" viewBox="0 0 24 24" fill="none">
  <path d="M4.11321 5.29754C4.11321 4.82968 4.4849 4.45041 4.9434 4.45041C5.4019 4.45041 5.77358 4.82968 5.77358 5.29754V6.9918C5.77358 7.45966 5.4019 7.83893 4.9434 7.83893C4.4849 7.83893 4.11321 7.45966 4.11321 6.9918V5.29754Z" fill="#0c534a"/>
  <path d="M9.09434 14.616C9.09434 14.1481 9.46603 13.7689 9.92453 13.7689C10.383 13.7689 10.7547 14.1481 10.7547 14.616V16.3102C10.7547 16.7781 10.383 17.1574 9.92453 17.1574C9.46603 17.1574 9.09434 16.7781 9.09434 16.3102V14.616Z" fill="#0c534a"/>
  <path d="M14.9057 18.8516C14.9057 18.3838 15.2773 18.0045 15.7358 18.0045C16.1944 18.0045 16.566 18.3838 16.566 18.8516V21.393H14.9057V18.8516Z" fill="#0c534a"/>
  <path d="M6.60377 5.29754C6.60377 4.82968 6.97546 4.45041 7.43396 4.45041C7.89246 4.45041 8.26415 4.82968 8.26415 5.29754V6.9918C8.26415 7.45966 7.89246 7.83893 7.43396 7.83893C6.97546 7.83893 6.60377 7.45966 6.60377 6.9918V5.29754Z" fill="#0c534a"/>
  <path d="M11.5849 14.616C11.5849 14.1481 11.9566 13.7689 12.4151 13.7689C12.8736 13.7689 13.2453 14.1481 13.2453 14.616V16.3102C13.2453 16.7781 12.8736 17.1574 12.4151 17.1574C11.9566 17.1574 11.5849 16.7781 11.5849 16.3102V14.616Z" fill="#0c534a"/>
  <path d="M17.3962 18.8516C17.3962 18.3838 17.7679 18.0045 18.2264 18.0045C18.6849 18.0045 19.0566 18.3838 19.0566 18.8516V21.393H17.3962V18.8516Z" fill="#0c534a"/>
  <path d="M9.09434 5.29754C9.09434 4.82968 9.46603 4.45041 9.92453 4.45041C10.383 4.45041 10.7547 4.82968 10.7547 5.29754V6.9918C10.7547 7.45966 10.383 7.83893 9.92453 7.83893C9.46603 7.83893 9.09434 7.45966 9.09434 6.9918V5.29754Z" fill="#0c534a"/>
  <path fill-rule="evenodd" clip-rule="evenodd" d="M1 1.90901C1 1.32419 1.46461 0.850098 2.03774 0.850098H12.8302C13.4033 0.850098 13.8679 1.32419 13.8679 1.90901V9.89285H21.9623C22.5354 9.89285 23 10.3669 23 10.9518V22.2402C23 22.825 22.5354 23.2991 21.9623 23.2991H2.03774C1.46461 23.2991 1 22.825 1 22.2402V1.90901ZM11.7925 9.89761V2.96793H3.07547V21.1813H6.39623V10.9565C6.39623 10.3717 6.86084 9.89761 7.43396 9.89761H11.7925ZM8.4717 21.1813H20.9245V12.0107H14.9057V12.0154H8.4717V21.1813Z" fill="#0c534a"/>
</svg>