<svg xmlns="http://www.w3.org/2000/svg" viewBox="0 0 49 50" fill="none">
  <path d="M12.4647 45.8332C11.8558 45.8332 11.3454 45.623 10.9335 45.2027C10.5216 44.7824 10.3156 44.2615 10.3156 43.6402V39.1446C9.67089 38.4136 9.15152 37.6003 8.75751 36.7049C8.36351 35.8094 8.1665 34.8317 8.1665 33.7718V12.9384C8.1665 9.90481 9.54552 7.68441 12.3036 6.27725C15.0616 4.87009 19.4136 4.1665 25.3595 4.1665C31.5203 4.1665 34.4216 4.84267 37.0722 6.19501C39.7228 7.54735 41.0481 9.79516 41.0481 12.9384V33.7718C41.0481 34.8317 40.8511 35.8094 40.4571 36.7049C40.0631 37.6003 39.5437 38.4136 38.899 39.1446V43.6402C38.899 44.2615 38.693 44.7824 38.2811 45.2027C37.8692 45.623 37.3588 45.8332 36.7498 45.8332H34.6007C33.9918 45.8332 33.4814 45.623 33.0695 45.2027C32.6575 44.7824 32.4516 44.2615 32.4516 43.6402V41.4472H16.763V43.6402C16.763 44.2615 16.557 44.7824 16.1451 45.2027C15.7332 45.623 15.2228 45.8332 14.6139 45.8332H12.4647ZM12.4647 21.7104H36.7498V15.1314H12.4647V21.7104ZM17.8376 34.8683C18.733 34.8683 19.4942 34.5484 20.121 33.9088C20.7478 33.2692 21.0612 32.4925 21.0612 31.5788C21.0612 30.665 20.7478 29.8884 20.121 29.2487C19.4942 28.6091 18.733 28.2893 17.8376 28.2893C16.9421 28.2893 16.1809 28.6091 15.5541 29.2487C14.9273 29.8884 14.6139 30.665 14.6139 31.5788C14.6139 32.4925 14.9273 33.2692 15.5541 33.9088C16.1809 34.5484 16.9421 34.8683 17.8376 34.8683ZM31.377 34.8683C32.2725 34.8683 33.0336 34.5484 33.6605 33.9088C34.2873 33.2692 34.6007 32.4925 34.6007 31.5788C34.6007 30.665 34.2873 29.8884 33.6605 29.2487C33.0336 28.6091 32.2725 28.2893 31.377 28.2893C30.4816 28.2893 29.7204 28.6091 29.0936 29.2487C28.4668 29.8884 28.1533 30.665 28.1533 31.5788C28.1533 32.4925 28.4668 33.2692 29.0936 33.9088C29.7204 34.5484 30.4816 34.8683 31.377 34.8683ZM13.4319 10.7455H35.9976C35.4604 10.1241 34.3052 9.60327 32.5322 9.18295C30.7592 8.76263 29.407 8.55247 25.4669 8.55247C21.6343 8.55247 18.8315 8.7809 17.0585 9.23778C15.2855 9.69465 14.0766 10.1972 13.4319 10.7455ZM16.763 37.0612H32.4516C33.6336 37.0612 34.6455 36.6318 35.4872 35.7729C36.329 34.9139 36.7498 33.8814 36.7498 32.6753V26.0963H12.4647V32.6753C12.4647 33.8814 12.8856 34.9139 13.7274 35.7729C14.5691 36.6318 15.581 37.0612 16.763 37.0612Z" fill="#A7D9FE"/>
</svg>