<svg xmlns="http://www.w3.org/2000/svg" viewBox="0 0 16 16" fill="none">
  <path fill-rule="evenodd" clip-rule="evenodd" d="M5.3335 0.666626C5.70169 0.666626 6.00016 0.965103 6.00016 1.33329V1.99996H10.0002V1.33329C10.0002 0.965103 10.2986 0.666626 10.6668 0.666626C11.035 0.666626 11.3335 0.965103 11.3335 1.33329V1.99996H12.6668C13.7714 1.99996 14.6668 2.89539 14.6668 3.99996V13.3333C14.6668 14.4379 13.7714 15.3333 12.6668 15.3333H3.3335C2.22893 15.3333 1.3335 14.4379 1.3335 13.3333V3.99996C1.3335 2.89539 2.22893 1.99996 3.3335 1.99996H4.66683V1.33329C4.66683 0.965103 4.96531 0.666626 5.3335 0.666626ZM4.66683 3.33329H3.3335C2.96531 3.33329 2.66683 3.63177 2.66683 3.99996V5.99996H13.3335V3.99996C13.3335 3.63177 13.035 3.33329 12.6668 3.33329H11.3335V3.99996C11.3335 4.36815 11.035 4.66663 10.6668 4.66663C10.2986 4.66663 10.0002 4.36815 10.0002 3.99996V3.33329H6.00016V3.99996C6.00016 4.36815 5.70169 4.66663 5.3335 4.66663C4.96531 4.66663 4.66683 4.36815 4.66683 3.99996V3.33329ZM13.3335 7.33329H2.66683V13.3333C2.66683 13.7015 2.96531 14 3.3335 14H12.6668C13.035 14 13.3335 13.7015 13.3335 13.3333V7.33329Z" fill="currentColor"/>
</svg>