<svg xmlns="http://www.w3.org/2000/svg" viewBox="0 0 49 50" fill="none">
  <path d="M10.1562 43.4216C8.45486 43.4216 7.00868 42.8139 5.81771 41.5986C4.62674 40.3834 4.03125 38.9077 4.03125 37.1716C4.03125 35.4354 4.62674 33.9597 5.81771 32.7445C7.00868 31.5292 8.45486 30.9216 10.1562 30.9216C11.4833 30.9216 12.6658 31.3122 13.7036 32.0934C14.7415 32.8747 15.4646 33.8729 15.8729 35.0882H26.6937C27.0681 32.7271 28.0293 30.6611 29.5776 28.8903C31.1259 27.1195 33.0229 25.8868 35.2687 25.1924L32.4104 12.1715H24.4479V8.00488H32.4104C33.3292 8.00488 34.1714 8.3087 34.937 8.91634C35.7026 9.52398 36.1875 10.2965 36.3917 11.234L40.2708 28.8382H38.7396C36.4937 28.8382 34.5712 29.6542 32.9719 31.2861C31.3726 32.9181 30.5729 34.8799 30.5729 37.1716V39.2549H15.8729C15.4646 40.4702 14.7415 41.4684 13.7036 42.2497C12.6658 43.0309 11.4833 43.4216 10.1562 43.4216ZM10.1562 39.2549C10.7347 39.2549 11.2196 39.0552 11.6109 38.6559C12.0023 38.2566 12.1979 37.7618 12.1979 37.1716C12.1979 36.5813 12.0023 36.0865 11.6109 35.6872C11.2196 35.2879 10.7347 35.0882 10.1562 35.0882C9.57778 35.0882 9.09288 35.2879 8.70156 35.6872C8.31024 36.0865 8.11458 36.5813 8.11458 37.1716C8.11458 37.7618 8.31024 38.2566 8.70156 38.6559C9.09288 39.0552 9.57778 39.2549 10.1562 39.2549ZM38.7396 43.4216C37.0382 43.4216 35.592 42.8139 34.401 41.5986C33.2101 40.3834 32.6146 38.9077 32.6146 37.1716C32.6146 35.4354 33.2101 33.9597 34.401 32.7445C35.592 31.5292 37.0382 30.9216 38.7396 30.9216C40.441 30.9216 41.8871 31.5292 43.0781 32.7445C44.2691 33.9597 44.8646 35.4354 44.8646 37.1716C44.8646 38.9077 44.2691 40.3834 43.0781 41.5986C41.8871 42.8139 40.441 43.4216 38.7396 43.4216ZM38.7396 39.2549C39.3181 39.2549 39.8029 39.0552 40.1943 38.6559C40.5856 38.2566 40.7812 37.7618 40.7812 37.1716C40.7812 36.5813 40.5856 36.0865 40.1943 35.6872C39.8029 35.2879 39.3181 35.0882 38.7396 35.0882C38.1611 35.0882 37.6762 35.2879 37.2849 35.6872C36.8936 36.0865 36.6979 36.5813 36.6979 37.1716C36.6979 37.7618 36.8936 38.2566 37.2849 38.6559C37.6762 39.0552 38.1611 39.2549 38.7396 39.2549Z" fill="#FFE99D"/>
</svg>