<svg xmlns="http://www.w3.org/2000/svg" viewBox="0 0 24 24" fill="none">
  <path fill-rule="evenodd" clip-rule="evenodd" d="M8 1C8.55228 1 9 1.44772 9 2V3H15V2C15 1.44772 15.4477 1 16 1C16.5523 1 17 1.44772 17 2V3H19C20.6569 3 22 4.34315 22 6V20C22 21.6569 20.6569 23 19 23H5C3.34315 23 2 21.6569 2 20V6C2 4.34315 3.34315 3 5 3H7V2C7 1.44772 7.44772 1 8 1ZM7 5H5C4.44772 5 4 5.44772 4 6V9H20V6C20 5.44771 19.5523 5 19 5H17V6C17 6.55228 16.5523 7 16 7C15.4477 7 15 6.55228 15 6V5H9V6C9 6.55228 8.55228 7 8 7C7.44772 7 7 6.55228 7 6V5ZM20 11H4V20C4 20.5523 4.44771 21 5 21H19C19.5523 21 20 20.5523 20 20V11Z" fill="#FEC8A7"/>
  <path d="M11.9998 17.9L13.4998 19.05C13.6832 19.2 13.8832 19.2042 14.0998 19.0625C14.3165 18.9208 14.3832 18.7333 14.2998 18.5L13.6998 16.6L15.3748 15.3C15.5582 15.15 15.6082 14.9625 15.5248 14.7375C15.4415 14.5125 15.2832 14.4 15.0498 14.4H13.0998L12.4748 12.475C12.3915 12.2417 12.2332 12.125 11.9998 12.125C11.7665 12.125 11.6082 12.2417 11.5248 12.475L10.8998 14.4H8.92485C8.69152 14.4 8.53735 14.5125 8.46235 14.7375C8.38735 14.9625 8.44152 15.15 8.62485 15.3L10.2498 16.6L9.64985 18.525C9.56652 18.7583 9.62485 18.9458 9.82485 19.0875C10.0248 19.2292 10.2248 19.225 10.4248 19.075L11.9998 17.9Z" fill="#FEC8A7"/>
</svg>