<svg xmlns="http://www.w3.org/2000/svg" width="16" height="16" viewBox="0 0 16 16" fill="none">
  <path fill-rule="evenodd" clip-rule="evenodd" d="M7.59038 0.80718C7.83112 0.619937 8.16823 0.619937 8.40897 0.80718L14.409 5.47385C14.5714 5.60015 14.6663 5.79435 14.6663 6.00008V13.3334C14.6663 13.8638 14.4556 14.3726 14.0806 14.7476C13.7055 15.1227 13.1968 15.3334 12.6663 15.3334H3.33301C2.80257 15.3334 2.29387 15.1227 1.91879 14.7476C1.54372 14.3726 1.33301 13.8638 1.33301 13.3334V6.00008C1.33301 5.79435 1.42799 5.60015 1.59038 5.47385L7.59038 0.80718ZM6.66634 14.0001H9.33301V8.66675H6.66634V14.0001ZM10.6663 14.0001V8.00008C10.6663 7.63189 10.3679 7.33341 9.99967 7.33341H5.99967C5.63148 7.33341 5.33301 7.63189 5.33301 8.00008V14.0001H3.33301C3.1562 14.0001 2.98663 13.9298 2.8616 13.8048C2.73658 13.6798 2.66634 13.5102 2.66634 13.3334V6.32614L7.99967 2.17799L13.333 6.32614V13.3334C13.333 13.5102 13.2628 13.6798 13.1377 13.8048C13.0127 13.9298 12.8432 14.0001 12.6663 14.0001H10.6663Z" fill="#000F9F"/>
</svg>