<svg xmlns="http://www.w3.org/2000/svg" width="24" height="24" viewBox="0 0 24 24" fill="none">
  <path d="M11.0868 21.0868V20.1735C9.18417 19.9604 7.55175 19.1728 6.1895 17.8105C4.82725 16.4482 4.03957 14.8158 3.82648 12.9132H2.91324C2.65449 12.9132 2.4376 12.8257 2.26256 12.6507C2.08752 12.4756 2 12.2588 2 12C2 11.7412 2.08752 11.5244 2.26256 11.3493C2.4376 11.1743 2.65449 11.0868 2.91324 11.0868H3.82648C4.03957 9.18417 4.82725 7.55175 6.1895 6.1895C7.55175 4.82725 9.18417 4.03957 11.0868 3.82648V2.91324C11.0868 2.65449 11.1743 2.4376 11.3493 2.26256C11.5244 2.08752 11.7412 2 12 2C12.2588 2 12.4756 2.08752 12.6507 2.26256C12.8257 2.4376 12.9132 2.65449 12.9132 2.91324V3.82648C14.8158 4.03957 16.4482 4.82725 17.8105 6.1895C19.1728 7.55175 19.9604 9.18417 20.1735 11.0868H21.0868C21.3455 11.0868 21.5624 11.1743 21.7374 11.3493C21.9125 11.5244 22 11.7412 22 12C22 12.2588 21.9125 12.4756 21.7374 12.6507C21.5624 12.8257 21.3455 12.9132 21.0868 12.9132H20.1735C19.9604 14.8158 19.1728 16.4482 17.8105 17.8105C16.4482 19.1728 14.8158 19.9604 12.9132 20.1735V21.0868C12.9132 21.3455 12.8257 21.5624 12.6507 21.7374C12.4756 21.9125 12.2588 22 12 22C11.7412 22 11.5244 21.9125 11.3493 21.7374C11.1743 21.5624 11.0868 21.3455 11.0868 21.0868ZM12 18.3927C13.7656 18.3927 15.2725 17.7686 16.5205 16.5205C17.7686 15.2725 18.3927 13.7656 18.3927 12C18.3927 10.2344 17.7686 8.72755 16.5205 7.47945C15.2725 6.23135 13.7656 5.60731 12 5.60731C10.2344 5.60731 8.72755 6.23135 7.47945 7.47945C6.23135 8.72755 5.60731 10.2344 5.60731 12C5.60731 13.7656 6.23135 15.2725 7.47945 16.5205C8.72755 17.7686 10.2344 18.3927 12 18.3927ZM12 15.653C10.9954 15.653 10.1355 15.2953 9.42009 14.5799C8.70472 13.8645 8.34703 13.0046 8.34703 12C8.34703 10.9954 8.70472 10.1355 9.42009 9.42009C10.1355 8.70472 10.9954 8.34703 12 8.34703C13.0046 8.34703 13.8645 8.70472 14.5799 9.42009C15.2953 10.1355 15.653 10.9954 15.653 12C15.653 13.0046 15.2953 13.8645 14.5799 14.5799C13.8645 15.2953 13.0046 15.653 12 15.653ZM12 13.8265C12.5023 13.8265 12.9323 13.6476 13.29 13.29C13.6476 12.9323 13.8265 12.5023 13.8265 12C13.8265 11.4977 13.6476 11.0677 13.29 10.71C12.9323 10.3524 12.5023 10.1735 12 10.1735C11.4977 10.1735 11.0677 10.3524 10.71 10.71C10.3524 11.0677 10.1735 11.4977 10.1735 12C10.1735 12.5023 10.3524 12.9323 10.71 13.29C11.0677 13.6476 11.4977 13.8265 12 13.8265Z" fill="#00095F"/>
</svg>