<svg xmlns="http://www.w3.org/2000/svg" width="20" height="20" viewBox="0 0 20 20" fill="none">
  <path d="M9.99984 0C12.21 0 14.3296 0.877974 15.8924 2.44078C17.4552 4.00358 18.3332 6.1232 18.3332 8.33333C18.2981 9.93373 17.8602 11.4995 17.0598 12.8858C16.3175 14.2053 15.4084 15.4236 14.3548 16.5108C13.1744 17.7564 11.8701 18.8786 10.4623 19.86C10.3255 19.9512 10.1647 19.9998 10.0003 19.9998C9.8358 19.9998 9.67503 19.9512 9.53817 19.86C8.13038 18.8786 6.82616 17.7564 5.64567 16.5108C4.59214 15.4236 3.68299 14.2053 2.94067 12.8858C2.14006 11.4995 1.70184 9.93381 1.6665 8.33333C1.6665 6.1232 2.54448 4.00358 4.10728 2.44078C5.67008 0.877974 7.7897 0 9.99984 0ZM9.99984 18.1425C11.5832 16.97 16.6665 12.845 16.6665 8.33333C16.6666 7.01476 16.2756 5.72578 15.543 4.6294C14.8105 3.53303 13.7693 2.67851 12.5511 2.17391C11.3329 1.6693 9.99241 1.53728 8.69917 1.79454C7.40593 2.05179 6.21802 2.68677 5.28567 3.61917C4.66469 4.23682 4.17238 4.9715 3.83724 5.78068C3.50209 6.58987 3.33076 7.45749 3.33317 8.33333C3.33317 12.8442 8.4165 16.9692 9.99984 18.1425Z" fill="#00095F"/>
  <path d="M9.99984 11.6667C9.34057 11.6667 8.6961 11.4712 8.14794 11.1049C7.59977 10.7386 7.17253 10.218 6.92024 9.60895C6.66795 8.99986 6.60194 8.32964 6.73055 7.68303C6.85917 7.03643 7.17664 6.44249 7.64281 5.97631C8.10899 5.51014 8.70293 5.19267 9.34954 5.06405C9.99614 4.93543 10.6664 5.00144 11.2754 5.25374C11.8845 5.50603 12.4051 5.93327 12.7714 6.48143C13.1377 7.0296 13.3332 7.67406 13.3332 8.33333C13.3332 9.21739 12.982 10.0652 12.3569 10.6904C11.7317 11.3155 10.8839 11.6667 9.99984 11.6667ZM9.99984 6.66667C9.6702 6.66667 9.34797 6.76442 9.07389 6.94755C8.79981 7.13069 8.58618 7.39099 8.46004 7.69553C8.33389 8.00007 8.30089 8.33518 8.3652 8.65849C8.4295 8.98179 8.58824 9.27876 8.82133 9.51185C9.05441 9.74493 9.35139 9.90367 9.67469 9.96798C9.99799 10.0323 10.3331 9.99928 10.6376 9.87313C10.9422 9.74699 11.2025 9.53337 11.3856 9.25928C11.5688 8.9852 11.6665 8.66297 11.6665 8.33333C11.6665 7.89131 11.4909 7.46738 11.1783 7.15482C10.8658 6.84226 10.4419 6.66667 9.99984 6.66667Z" fill="#00095F"/>
</svg>