<svg xmlns="http://www.w3.org/2000/svg" width="32" height="32" viewBox="0 0 32 32" fill="none">
  <path fill-rule="evenodd" clip-rule="evenodd"
    d="M16.0002 5.3335C16.7365 5.3335 17.3335 5.93045 17.3335 6.66683V14.6668H25.3335C26.0699 14.6668 26.6668 15.2638 26.6668 16.0002C26.6668 16.7365 26.0699 17.3335 25.3335 17.3335H17.3335V25.3335C17.3335 26.0699 16.7365 26.6668 16.0002 26.6668C15.2638 26.6668 14.6668 26.0699 14.6668 25.3335V17.3335H6.66683C5.93045 17.3335 5.3335 16.7365 5.3335 16.0002C5.3335 15.2638 5.93045 14.6668 6.66683 14.6668H14.6668V6.66683C14.6668 5.93045 15.2638 5.3335 16.0002 5.3335Z"
    fill="#000F9F" />
</svg>