<svg xmlns="http://www.w3.org/2000/svg" viewBox="0 0 22 18" fill="none">
<path d="M13.9457 12.9761C14.426 12.9761 14.8153 13.3655 14.8153 13.8457C14.8153 14.326 14.426 14.7153 13.9457 14.7153C13.4655 14.7153 13.0761 14.326 13.0761 13.8457C13.0761 13.3655 13.4655 12.9761 13.9457 12.9761Z" fill="#FFE99D"/>
<path d="M19.0756 12.9761C19.5559 12.9761 19.9452 13.3655 19.9452 13.8457C19.9452 14.326 19.5559 14.7153 19.0756 14.7153C18.5954 14.7153 18.2061 14.326 18.2061 13.8457C18.2061 13.3655 18.5954 12.9761 19.0756 12.9761Z" fill="#FFE99D"/>
<path fill-rule="evenodd" clip-rule="evenodd" d="M18.0744 8.62832H18.9797C19.5014 8.6284 19.9732 8.93938 20.1787 9.41891L21.2572 11.935L21.292 12.0174V16.8892C21.292 17.1293 21.0078 17.324 20.7676 17.324C20.5275 17.324 20.2516 17.1293 20.2516 16.8892V16.0196H12.3299V16.8892C12.3299 17.1293 12.0336 17.324 11.7935 17.324C11.5534 17.324 11.292 17.1293 11.292 16.8892V12.0174L11.3268 11.935L12.4053 9.41891C12.6108 8.93938 13.0826 8.6284 13.6043 8.62832H14.6836V7.32397H18.0744V8.62832ZM12.1616 15.1501H20.4224V12.5414H12.1616V15.1501ZM13.6043 9.49789C13.4306 9.49796 13.2738 9.60152 13.2052 9.76113L12.3866 11.6718H20.1974L19.3788 9.76113C19.3102 9.60152 19.1534 9.49796 18.9797 9.49789H13.6043Z" fill="#FFE99D"/>
<path d="M8.54811 17.5815C8.93242 17.5815 9.25909 17.4443 9.52811 17.1698C9.79713 16.8953 9.93164 16.5619 9.93164 16.1698C9.93164 15.7776 9.79713 15.4443 9.52811 15.1698C9.25909 14.8953 8.93242 14.758 8.54811 14.758C8.24835 14.758 7.98125 14.8463 7.74682 15.0227C7.51238 15.1992 7.34905 15.4247 7.25682 15.6992H4.81258C4.72803 15.1659 4.5109 14.6992 4.16117 14.2992C3.81145 13.8992 3.38294 13.6208 2.87564 13.4639L3.52129 10.5227H5.31988V9.58154H3.52129C3.31376 9.58154 3.12353 9.65017 2.95058 9.78743C2.77764 9.92468 2.66812 10.0992 2.622 10.311L1.74576 14.2874H2.09165C2.59894 14.2874 3.03321 14.4717 3.39447 14.8404C3.75572 15.209 3.93635 15.6521 3.93635 16.1698V16.6404H7.25682C7.34905 16.9149 7.51238 17.1404 7.74682 17.3168C7.98125 17.4933 8.24835 17.5815 8.54811 17.5815ZM8.54811 16.6404C8.41744 16.6404 8.30791 16.5953 8.21952 16.5051C8.13113 16.4149 8.08693 16.3031 8.08693 16.1698C8.08693 16.0364 8.13113 15.9247 8.21952 15.8345C8.30791 15.7443 8.41744 15.6992 8.54811 15.6992C8.67878 15.6992 8.78831 15.7443 8.8767 15.8345C8.96509 15.9247 9.00929 16.0364 9.00929 16.1698C9.00929 16.3031 8.96509 16.4149 8.8767 16.5051C8.78831 16.5953 8.67878 16.6404 8.54811 16.6404ZM2.09165 17.5815C2.47596 17.5815 2.80262 17.4443 3.07164 17.1698C3.34066 16.8953 3.47517 16.5619 3.47517 16.1698C3.47517 15.7776 3.34066 15.4443 3.07164 15.1698C2.80262 14.8953 2.47596 14.758 2.09165 14.758C1.70733 14.758 1.38067 14.8953 1.11165 15.1698C0.842627 15.4443 0.708117 15.7776 0.708117 16.1698C0.708117 16.5619 0.842627 16.8953 1.11165 17.1698C1.38067 17.4443 1.70733 17.5815 2.09165 17.5815ZM2.09165 16.6404C1.96098 16.6404 1.85145 16.5953 1.76306 16.5051C1.67467 16.4149 1.63047 16.3031 1.63047 16.1698C1.63047 16.0364 1.67467 15.9247 1.76306 15.8345C1.85145 15.7443 1.96098 15.6992 2.09165 15.6992C2.22231 15.6992 2.33184 15.7443 2.42023 15.8345C2.50863 15.9247 2.55282 16.0364 2.55282 16.1698C2.55282 16.3031 2.50863 16.4149 2.42023 16.5051C2.33184 16.5953 2.22231 16.6404 2.09165 16.6404Z" fill="#FFE99D"/>
<path d="M6.29346 0.418701L4.771 3.4021C4.51302 3.31439 4.2396 3.2576 3.95068 3.25757C2.52628 3.25757 1.36969 4.41326 1.36963 5.83765C1.36963 7.26209 2.52624 8.4187 3.95068 8.4187C5.375 8.41856 6.53076 7.262 6.53076 5.83765C6.53005 5.42991 6.43225 5.02829 6.24561 4.66577C6.05895 4.30324 5.789 3.99014 5.45752 3.75269L5.86475 2.96265L7.30518 6.22437H8.63623C8.82203 7.46301 9.88602 8.4187 11.1763 8.4187C12.6005 8.41847 13.7563 7.26194 13.7563 5.83765C13.7563 4.4134 12.6005 3.2578 11.1763 3.25757C9.88602 3.25757 8.82203 4.21228 8.63623 5.45093H8.15186L9.31299 2.74097H9.62744C9.84415 2.74097 10.0199 2.56578 10.02 2.35425C10.02 2.14265 9.8442 1.96655 9.62744 1.96655H8.59521C8.38367 1.96662 8.21338 2.14269 8.21338 2.35425C8.21346 2.52449 8.33775 2.66398 8.47705 2.71558L7.56299 4.8728L6.31396 2.08081L6.76807 1.19312H8.07959V0.418701H6.29346ZM11.1763 4.03101C12.1721 4.03124 12.9819 4.84177 12.9819 5.83765C12.9819 6.83358 12.1721 7.64405 11.1763 7.64429C10.7653 7.64374 10.3664 7.50274 10.0464 7.24487C9.72632 6.98675 9.50318 6.6261 9.41553 6.22437H11.6919V5.45093H9.41553C9.591 4.64065 10.3144 4.03101 11.1763 4.03101ZM3.95068 4.03101C4.11045 4.03104 4.26508 4.06232 4.41455 4.09839L3.49072 5.90503L4.17236 6.27612L5.10107 4.45972C5.49844 4.79 5.75631 5.28031 5.75635 5.83765C5.75635 6.83363 4.94664 7.64414 3.95068 7.64429C2.95461 7.64429 2.14404 6.83372 2.14404 5.83765C2.14411 4.84163 2.95465 4.03101 3.95068 4.03101Z" fill="#FFE99D"/>
</svg>