<svg xmlns="http://www.w3.org/2000/svg" viewBox="0 0 22 18" fill="none">
  <path d="M12.2119 15.1003H20.3721V12.5916H12.2119V15.1003ZM13.9453 12.9265C14.4531 12.9265 14.8651 13.3377 14.8652 13.8455C14.8652 14.3533 14.4532 14.7654 13.9453 14.7654C13.4376 14.7652 13.0264 14.3532 13.0264 13.8455C13.0265 13.3378 13.4377 12.9267 13.9453 12.9265ZM19.0752 12.9265C19.583 12.9265 19.995 13.3377 19.9951 13.8455C19.9951 14.3533 19.5831 14.7654 19.0752 14.7654C18.5675 14.7651 18.1562 14.3532 18.1562 13.8455C18.1564 13.3379 18.5676 12.9268 19.0752 12.9265ZM13.6045 9.54761C13.4508 9.54767 13.3117 9.63972 13.251 9.78101L12.4619 11.6218H20.1221L19.333 9.78101C19.2723 9.63972 19.1332 9.54767 18.9795 9.54761H13.6045ZM21.3418 16.8894C21.3417 17.0299 21.2589 17.1516 21.1504 17.2361C21.0416 17.3207 20.9 17.3738 20.7676 17.3738C20.6351 17.3738 20.4955 17.3209 20.3887 17.2361C20.282 17.1513 20.2013 17.0293 20.2012 16.8894V16.0701H12.3799V16.8894C12.3798 17.0307 12.2928 17.152 12.1816 17.2361C12.0701 17.3204 11.9261 17.3737 11.7939 17.3738C11.6612 17.3738 11.5243 17.3204 11.4209 17.2351C11.3175 17.1498 11.2423 17.0282 11.2422 16.8894V12.0076L11.2461 11.9978L11.2803 11.9158H11.2812L12.3594 9.39917C12.5728 8.90128 13.0628 8.57796 13.6045 8.57788H14.6338V7.27417H18.124V8.57788H18.9795C19.5212 8.57796 20.0112 8.90128 20.2246 9.39917L21.3027 11.9158H21.3037L21.3379 11.9978L21.3418 12.0076V16.8894Z" fill="#FFE99D" stroke="#FFE99D" stroke-width="0.1" stroke-linecap="round"/>
  <path d="M3.52148 9.53174C3.30197 9.53174 3.10107 9.60481 2.91992 9.74854C2.73814 9.89281 2.62187 10.077 2.57324 10.3003L1.69727 14.2769L1.68359 14.3374H2.0918C2.58528 14.3374 3.00642 14.5164 3.3584 14.8755C3.71038 15.2347 3.88664 15.665 3.88672 16.1694V16.6899H7.22168C7.31903 16.9589 7.48409 17.1818 7.7168 17.3569C7.96 17.54 8.23764 17.6313 8.54785 17.6313C8.94557 17.6313 9.28507 17.4886 9.56348 17.2046C9.84186 16.9205 9.98145 16.5744 9.98145 16.1694C9.98137 15.7647 9.84174 15.4192 9.56348 15.1353C9.28505 14.8511 8.9456 14.7085 8.54785 14.7085C8.23759 14.7085 7.96003 14.7998 7.7168 14.9829C7.48429 15.1579 7.31906 15.3802 7.22168 15.6489H4.85449C4.76386 15.1241 4.54586 14.6626 4.19922 14.2661C3.85366 13.8709 3.43137 13.5931 2.93457 13.4312L3.56152 10.5728H5.37012V9.53174H3.52148ZM2.0918 14.7085C1.69405 14.7085 1.35459 14.8511 1.07617 15.1353C0.797946 15.4192 0.658282 15.7647 0.658203 16.1694C0.658203 16.5744 0.797788 16.9205 1.07617 17.2046C1.35459 17.4887 1.69406 17.6313 2.0918 17.6313C2.48948 17.6313 2.82903 17.4887 3.10742 17.2046C3.38572 16.9205 3.52539 16.5743 3.52539 16.1694C3.52531 15.7648 3.38555 15.4192 3.10742 15.1353C2.82903 14.8512 2.48948 14.7085 2.0918 14.7085ZM8.54785 15.7495C8.6656 15.7495 8.76219 15.7894 8.84082 15.8696C8.91943 15.9498 8.95891 16.0485 8.95898 16.1694C8.95898 16.2905 8.9195 16.3899 8.84082 16.4702C8.76222 16.5503 8.66553 16.5903 8.54785 16.5903C8.43022 16.5903 8.33345 16.5504 8.25488 16.4702C8.17627 16.3899 8.13672 16.2904 8.13672 16.1694C8.13679 16.0487 8.17644 15.9498 8.25488 15.8696C8.33345 15.7895 8.43022 15.7496 8.54785 15.7495ZM2.0918 15.7495C2.20948 15.7495 2.30617 15.7894 2.38477 15.8696C2.46325 15.9498 2.50285 16.0486 2.50293 16.1694C2.50293 16.2905 2.46341 16.3899 2.38477 16.4702C2.30617 16.5504 2.20948 16.5903 2.0918 16.5903C1.97409 16.5903 1.87744 16.5504 1.79883 16.4702C1.72015 16.3899 1.68066 16.2905 1.68066 16.1694C1.68074 16.0486 1.72025 15.9498 1.79883 15.8696C1.87746 15.7894 1.97404 15.7495 2.0918 15.7495Z" fill="#FFE99D" stroke="#FFE99D" stroke-width="0.1"/>
  <mask id="path-3-outside-1_4893_57633" maskUnits="userSpaceOnUse" x="0.756348" y="-0.581299" width="14" height="10" fill="black">
    <rect fill="white" x="0.756348" y="-0.581299" width="14" height="10"/>
    <path d="M6.29346 0.418701L4.771 3.4021C4.51302 3.31439 4.2396 3.2576 3.95068 3.25757C2.52628 3.25757 1.36969 4.41326 1.36963 5.83765C1.36963 7.26209 2.52624 8.4187 3.95068 8.4187C5.375 8.41856 6.53076 7.262 6.53076 5.83765C6.53005 5.42991 6.43225 5.02829 6.24561 4.66577C6.05895 4.30324 5.789 3.99014 5.45752 3.75269L5.86475 2.96265L7.30518 6.22437H8.63623C8.82203 7.46301 9.88602 8.4187 11.1763 8.4187C12.6005 8.41847 13.7563 7.26194 13.7563 5.83765C13.7563 4.4134 12.6005 3.2578 11.1763 3.25757C9.88602 3.25757 8.82203 4.21228 8.63623 5.45093H8.15186L9.31299 2.74097H9.62744C9.84415 2.74097 10.0199 2.56578 10.02 2.35425C10.02 2.14265 9.8442 1.96655 9.62744 1.96655H8.59521C8.38367 1.96662 8.21338 2.14269 8.21338 2.35425C8.21346 2.52449 8.33775 2.66398 8.47705 2.71558L7.56299 4.8728L6.31396 2.08081L6.76807 1.19312H8.07959V0.418701H6.29346ZM11.1763 4.03101C12.1721 4.03124 12.9819 4.84177 12.9819 5.83765C12.9819 6.83358 12.1721 7.64405 11.1763 7.64429C10.7653 7.64374 10.3664 7.50274 10.0464 7.24487C9.72632 6.98675 9.50318 6.6261 9.41553 6.22437H11.6919V5.45093H9.41553C9.591 4.64065 10.3144 4.03101 11.1763 4.03101ZM3.95068 4.03101C4.11045 4.03104 4.26508 4.06232 4.41455 4.09839L3.49072 5.90503L4.17236 6.27612L5.10107 4.45972C5.49844 4.79 5.75631 5.28031 5.75635 5.83765C5.75635 6.83363 4.94664 7.64414 3.95068 7.64429C2.95461 7.64429 2.14404 6.83372 2.14404 5.83765C2.14411 4.84163 2.95465 4.03101 3.95068 4.03101Z"/>
  </mask>
  <path d="M6.29346 0.418701L4.771 3.4021C4.51302 3.31439 4.2396 3.2576 3.95068 3.25757C2.52628 3.25757 1.36969 4.41326 1.36963 5.83765C1.36963 7.26209 2.52624 8.4187 3.95068 8.4187C5.375 8.41856 6.53076 7.262 6.53076 5.83765C6.53005 5.42991 6.43225 5.02829 6.24561 4.66577C6.05895 4.30324 5.789 3.99014 5.45752 3.75269L5.86475 2.96265L7.30518 6.22437H8.63623C8.82203 7.46301 9.88602 8.4187 11.1763 8.4187C12.6005 8.41847 13.7563 7.26194 13.7563 5.83765C13.7563 4.4134 12.6005 3.2578 11.1763 3.25757C9.88602 3.25757 8.82203 4.21228 8.63623 5.45093H8.15186L9.31299 2.74097H9.62744C9.84415 2.74097 10.0199 2.56578 10.02 2.35425C10.02 2.14265 9.8442 1.96655 9.62744 1.96655H8.59521C8.38367 1.96662 8.21338 2.14269 8.21338 2.35425C8.21346 2.52449 8.33775 2.66398 8.47705 2.71558L7.56299 4.8728L6.31396 2.08081L6.76807 1.19312H8.07959V0.418701H6.29346ZM11.1763 4.03101C12.1721 4.03124 12.9819 4.84177 12.9819 5.83765C12.9819 6.83358 12.1721 7.64405 11.1763 7.64429C10.7653 7.64374 10.3664 7.50274 10.0464 7.24487C9.72632 6.98675 9.50318 6.6261 9.41553 6.22437H11.6919V5.45093H9.41553C9.591 4.64065 10.3144 4.03101 11.1763 4.03101ZM3.95068 4.03101C4.11045 4.03104 4.26508 4.06232 4.41455 4.09839L3.49072 5.90503L4.17236 6.27612L5.10107 4.45972C5.49844 4.79 5.75631 5.28031 5.75635 5.83765C5.75635 6.83363 4.94664 7.64414 3.95068 7.64429C2.95461 7.64429 2.14404 6.83372 2.14404 5.83765C2.14411 4.84163 2.95465 4.03101 3.95068 4.03101Z" fill="#FFE99D"/>
  <path d="M6.29346 0.418701L6.20438 0.373247L6.23222 0.318701H6.29346V0.418701ZM4.771 3.4021L4.86007 3.44755L4.82073 3.52463L4.73881 3.49678L4.771 3.4021ZM3.95068 3.25757V3.15757H3.9507L3.95068 3.25757ZM1.36963 5.83765H1.26963V5.83764L1.36963 5.83765ZM3.95068 8.4187L3.95069 8.5187H3.95068V8.4187ZM6.53076 5.83765L6.63076 5.83747V5.83765H6.53076ZM6.24561 4.66577L6.33451 4.62L6.33451 4.62L6.24561 4.66577ZM5.45752 3.75269L5.39929 3.83398L5.32905 3.78367L5.36863 3.70687L5.45752 3.75269ZM5.86475 2.96265L5.77586 2.91683L5.87171 2.73088L5.95622 2.92225L5.86475 2.96265ZM7.30518 6.22437V6.32437H7.24002L7.2137 6.26476L7.30518 6.22437ZM8.63623 6.22437V6.12437H8.72235L8.73512 6.20953L8.63623 6.22437ZM11.1763 8.4187L11.1763 8.5187H11.1763V8.4187ZM13.7563 5.83765L13.8563 5.83764V5.83765H13.7563ZM11.1763 3.25757V3.15757H11.1763L11.1763 3.25757ZM8.63623 5.45093L8.73512 5.46576L8.72235 5.55093H8.63623V5.45093ZM8.15186 5.45093V5.55093H8.00022L8.05994 5.41154L8.15186 5.45093ZM9.31299 2.74097L9.22107 2.70158L9.24704 2.64097H9.31299V2.74097ZM10.02 2.35425H10.12V2.35429L10.02 2.35425ZM8.59521 1.96655L8.59518 1.86655H8.59521V1.96655ZM8.21338 2.35425L8.11338 2.3543V2.35425H8.21338ZM8.47705 2.71558L8.51178 2.6218L8.60998 2.65817L8.56913 2.75459L8.47705 2.71558ZM7.56299 4.8728L7.65506 4.91182L7.56548 5.12325L7.47171 4.91364L7.56299 4.8728ZM6.31396 2.08081L6.22268 2.12165L6.20312 2.07792L6.22494 2.03527L6.31396 2.08081ZM6.76807 1.19312L6.67904 1.14757L6.7069 1.09312H6.76807V1.19312ZM8.07959 1.19312H8.17959V1.29312H8.07959V1.19312ZM8.07959 0.418701V0.318701H8.17959V0.418701H8.07959ZM11.1763 4.03101V3.93101H11.1763L11.1763 4.03101ZM12.9819 5.83765L13.0819 5.83764V5.83765H12.9819ZM11.1763 7.64429L11.1763 7.74429H11.1761L11.1763 7.64429ZM10.0464 7.24487L9.98364 7.32274L9.98361 7.32271L10.0464 7.24487ZM9.41553 6.22437L9.31783 6.24568L9.29136 6.12437H9.41553V6.22437ZM11.6919 6.22437H11.7919V6.32437H11.6919V6.22437ZM11.6919 5.45093V5.35093H11.7919V5.45093H11.6919ZM9.41553 5.45093V5.55093H9.29155L9.31779 5.42976L9.41553 5.45093ZM3.95068 4.03101V3.93101H3.9507L3.95068 4.03101ZM4.41455 4.09839L4.43801 4.00118L4.56135 4.03094L4.50359 4.14392L4.41455 4.09839ZM3.49072 5.90503L3.44291 5.99286L3.35732 5.94626L3.40169 5.8595L3.49072 5.90503ZM4.17236 6.27612L4.2614 6.32165L4.21468 6.41302L4.12455 6.36395L4.17236 6.27612ZM5.10107 4.45972L5.01204 4.41419L5.06891 4.30295L5.16499 4.38281L5.10107 4.45972ZM5.75635 5.83765L5.85635 5.83764V5.83765H5.75635ZM3.95068 7.64429L3.9507 7.74429H3.95068V7.64429ZM2.14404 5.83765H2.04404V5.83764L2.14404 5.83765ZM6.29346 0.418701L6.38253 0.464156L4.86007 3.44755L4.771 3.4021L4.68192 3.35665L6.20438 0.373247L6.29346 0.418701ZM4.771 3.4021L4.73881 3.49678C4.48875 3.41176 4.22633 3.3576 3.95067 3.35757L3.95068 3.25757L3.9507 3.15757C4.25287 3.1576 4.53729 3.21702 4.80319 3.30742L4.771 3.4021ZM3.95068 3.25757V3.35757C2.58147 3.35757 1.46969 4.46854 1.46963 5.83765L1.36963 5.83765L1.26963 5.83764C1.2697 4.35799 2.4711 3.15757 3.95068 3.15757V3.25757ZM1.36963 5.83765H1.46963C1.46963 7.20686 2.58147 8.3187 3.95068 8.3187V8.4187V8.5187C2.47101 8.5187 1.26963 7.31732 1.26963 5.83765H1.36963ZM3.95068 8.4187L3.95067 8.3187C5.31973 8.31856 6.43076 7.20681 6.43076 5.83765H6.53076H6.63076C6.63076 7.31719 5.43027 8.51855 3.95069 8.5187L3.95068 8.4187ZM6.53076 5.83765L6.43076 5.83782C6.43007 5.44596 6.33609 5.05997 6.1567 4.71155L6.24561 4.66577L6.33451 4.62C6.52841 4.9966 6.63002 5.41385 6.63076 5.83747L6.53076 5.83765ZM6.24561 4.66577L6.1567 4.71155C5.97728 4.36307 5.71783 4.06216 5.39929 3.83398L5.45752 3.75269L5.51575 3.67139C5.86018 3.91812 6.14062 4.24341 6.33451 4.62L6.24561 4.66577ZM5.45752 3.75269L5.36863 3.70687L5.77586 2.91683L5.86475 2.96265L5.95363 3.00846L5.54641 3.7985L5.45752 3.75269ZM5.86475 2.96265L5.95622 2.92225L7.39665 6.18397L7.30518 6.22437L7.2137 6.26476L5.77327 3.00304L5.86475 2.96265ZM7.30518 6.22437V6.12437H8.63623V6.22437V6.32437H7.30518V6.22437ZM8.63623 6.22437L8.73512 6.20953C8.91377 7.4005 9.9368 8.3187 11.1763 8.3187V8.4187V8.5187C9.83523 8.5187 8.73028 7.52551 8.53734 6.2392L8.63623 6.22437ZM11.1763 8.4187L11.1763 8.3187C12.5452 8.31848 13.6563 7.20675 13.6563 5.83765H13.7563H13.8563C13.8563 7.31714 12.6558 8.51846 11.1763 8.5187L11.1763 8.4187ZM13.7563 5.83765L13.6563 5.83765C13.6563 4.46865 12.5453 3.35779 11.1763 3.35757L11.1763 3.25757L11.1763 3.15757C12.6557 3.15781 13.8563 4.35816 13.8563 5.83764L13.7563 5.83765ZM11.1763 3.25757V3.35757C9.93675 3.35757 8.91376 4.27484 8.73512 5.46576L8.63623 5.45093L8.53734 5.43609C8.73029 4.14972 9.83529 3.15757 11.1763 3.15757V3.25757ZM8.63623 5.45093V5.55093H8.15186V5.45093V5.35093H8.63623V5.45093ZM8.15186 5.45093L8.05994 5.41154L9.22107 2.70158L9.31299 2.74097L9.40491 2.78035L8.24377 5.49031L8.15186 5.45093ZM9.31299 2.74097V2.64097H9.62744V2.74097V2.84097H9.31299V2.74097ZM9.62744 2.74097V2.64097C9.78997 2.64097 9.91995 2.50949 9.92002 2.3542L10.02 2.35425L10.12 2.35429C10.1199 2.62206 9.89832 2.84097 9.62744 2.84097V2.74097ZM10.02 2.35425H9.92002C9.92002 2.19864 9.78974 2.06655 9.62744 2.06655V1.96655V1.86655C9.89866 1.86655 10.12 2.08665 10.12 2.35425H10.02ZM9.62744 1.96655V2.06655H8.59521V1.96655V1.86655H9.62744V1.96655ZM8.59521 1.96655L8.59525 2.06655C8.44084 2.0666 8.31338 2.19596 8.31338 2.35425H8.21338H8.11338C8.11338 2.08942 8.32649 1.86664 8.59518 1.86655L8.59521 1.96655ZM8.21338 2.35425L8.31338 2.3542C8.31344 2.47468 8.40368 2.58176 8.51178 2.6218L8.47705 2.71558L8.44232 2.80935C8.27182 2.7462 8.11348 2.5743 8.11338 2.3543L8.21338 2.35425ZM8.47705 2.71558L8.56913 2.75459L7.65506 4.91182L7.56299 4.8728L7.47091 4.83379L8.38498 2.67656L8.47705 2.71558ZM7.56299 4.8728L7.47171 4.91364L6.22268 2.12165L6.31396 2.08081L6.40525 2.03997L7.65427 4.83197L7.56299 4.8728ZM6.31396 2.08081L6.22494 2.03527L6.67904 1.14757L6.76807 1.19312L6.85709 1.23866L6.40299 2.12635L6.31396 2.08081ZM6.76807 1.19312V1.09312H8.07959V1.19312V1.29312H6.76807V1.19312ZM8.07959 1.19312H7.97959V0.418701H8.07959H8.17959V1.19312H8.07959ZM8.07959 0.418701V0.518701H6.29346V0.418701V0.318701H8.07959V0.418701ZM11.1763 4.03101L11.1763 3.93101C12.2274 3.93125 13.0819 4.78659 13.0819 5.83764L12.9819 5.83765L12.8819 5.83765C12.8819 4.89694 12.1168 4.13123 11.1762 4.13101L11.1763 4.03101ZM12.9819 5.83765H13.0819C13.0819 6.88876 12.2274 7.74404 11.1763 7.74429L11.1763 7.64429L11.1762 7.54429C12.1169 7.54407 12.8819 6.7784 12.8819 5.83765H12.9819ZM11.1763 7.64429L11.1761 7.74429C10.7424 7.74371 10.3214 7.59491 9.98364 7.32274L10.0464 7.24487L10.1091 7.16701C10.4114 7.41058 10.7882 7.54377 11.1764 7.54429L11.1763 7.64429ZM10.0464 7.24487L9.98361 7.32271C9.64583 7.05031 9.41034 6.66973 9.31783 6.24568L9.41553 6.22437L9.51323 6.20305C9.59601 6.58247 9.8068 6.92319 10.1092 7.16703L10.0464 7.24487ZM9.41553 6.22437V6.12437H11.6919V6.22437V6.32437H9.41553V6.22437ZM11.6919 6.22437H11.5919V5.45093H11.6919H11.7919V6.22437H11.6919ZM11.6919 5.45093V5.55093H9.41553V5.45093V5.35093H11.6919V5.45093ZM9.41553 5.45093L9.31779 5.42976C9.503 4.57453 10.2662 3.93101 11.1763 3.93101V4.03101V4.13101C10.3625 4.13101 9.679 4.70677 9.51326 5.47209L9.41553 5.45093ZM3.95068 4.03101L3.9507 3.93101C4.1228 3.93104 4.2869 3.96472 4.43801 4.00118L4.41455 4.09839L4.39109 4.1956C4.24325 4.15992 4.0981 4.13104 3.95066 4.13101L3.95068 4.03101ZM4.41455 4.09839L4.50359 4.14392L3.57976 5.95056L3.49072 5.90503L3.40169 5.8595L4.32552 4.05286L4.41455 4.09839ZM3.49072 5.90503L3.53854 5.8172L4.22018 6.18829L4.17236 6.27612L4.12455 6.36395L3.44291 5.99286L3.49072 5.90503ZM4.17236 6.27612L4.08333 6.2306L5.01204 4.41419L5.10107 4.45972L5.19011 4.50524L4.2614 6.32165L4.17236 6.27612ZM5.10107 4.45972L5.16499 4.38281C5.58339 4.73057 5.85631 5.24827 5.85635 5.83764L5.75635 5.83765L5.65635 5.83765C5.65631 5.31234 5.4135 4.84943 5.03715 4.53662L5.10107 4.45972ZM5.75635 5.83765H5.85635C5.85635 6.88881 5.00193 7.74414 3.9507 7.74429L3.95068 7.64429L3.95067 7.54429C4.89135 7.54415 5.65635 6.77846 5.65635 5.83765H5.75635ZM3.95068 7.64429V7.74429C2.89938 7.74429 2.04404 6.88895 2.04404 5.83765H2.14404H2.24404C2.24404 6.77849 3.00984 7.54429 3.95068 7.54429V7.64429ZM2.14404 5.83765L2.04404 5.83764C2.04411 4.7864 2.89941 3.93101 3.95068 3.93101V4.03101V4.13101C3.00988 4.13101 2.2441 4.89685 2.24404 5.83765L2.14404 5.83765Z" fill="#FFE99D" mask="url(#path-3-outside-1_4893_57633)"/>
</svg>