<svg xmlns="http://www.w3.org/2000/svg" viewBox="0 0 22 22" fill="none">
  <path
    d="M11.7767 10.5804C11.952 11.0658 12.032 11.5839 12.0121 12.1032V12.3809H11.1069V12.1319C11.1244 11.7412 11.069 11.3507 10.9439 10.9826C10.9143 10.9075 10.881 10.834 10.8443 10.7624L11.6409 10.3027C11.6892 10.3857 11.7345 10.4782 11.7767 10.5804ZM10.9892 9.40241L10.3827 10.1111C9.98198 9.74483 9.49871 9.49412 8.97963 9.38325L9.17877 8.42553C9.85207 8.57963 10.4759 8.91626 10.9892 9.40241ZM12.881 17.2078L12.9987 17.3036L12.4556 18.0698L12.2927 17.9357C11.8072 17.512 11.4408 16.9554 11.2336 16.3267L12.0935 16.0107C12.2452 16.4797 12.518 16.8945 12.881 17.2078ZM15.3341 18.29L15.135 19.2478C14.5131 19.1057 13.9066 18.8971 13.3246 18.6252L13.6957 17.7441C14.2233 17.9834 14.7722 18.1663 15.3341 18.29ZM11.9577 13.3578C11.9577 13.7409 11.9034 14.1335 11.9034 14.5262V15.187L10.9982 15.2828C10.9863 15.0308 10.9863 14.7782 10.9982 14.5262C10.9982 14.1144 10.9982 13.693 11.0525 13.2907L11.9577 13.3578Z"
    fill="#000F9F" />
  <path
    d="M18.8571 14.0426C19.5716 14.0426 20.2568 14.3302 20.762 14.8423C21.2672 15.3544 21.551 16.0489 21.551 16.7731C21.5397 17.2975 21.3981 17.8105 21.1394 18.2648C20.8994 18.6971 20.6055 19.0963 20.265 19.4525C19.8833 19.8607 19.4617 20.2284 19.0066 20.5499C18.9624 20.5798 18.9104 20.5957 18.8573 20.5957C18.8041 20.5957 18.7521 20.5798 18.7079 20.5499C18.2528 20.2284 17.8312 19.8607 17.4496 19.4525C17.109 19.0963 16.8151 18.6971 16.5752 18.2648C16.3163 17.8105 16.1747 17.2975 16.1633 16.7731C16.1633 16.0489 16.4471 15.3544 16.9523 14.8423C17.4575 14.3302 18.1427 14.0426 18.8571 14.0426ZM18.8571 19.9872C19.369 19.603 21.0122 18.2514 21.0122 16.7731C21.0123 16.341 20.8859 15.9187 20.6491 15.5594C20.4123 15.2002 20.0757 14.9202 19.6819 14.7549C19.2881 14.5895 18.8547 14.5463 18.4367 14.6306C18.0186 14.7148 17.6346 14.9229 17.3332 15.2284C17.1325 15.4308 16.9733 15.6715 16.865 15.9367C16.7566 16.2018 16.7013 16.4861 16.702 16.7731C16.702 18.2511 18.3453 19.6027 18.8571 19.9872Z"
    fill="#000F9F" />
  <path fill-rule="evenodd" clip-rule="evenodd"
    d="M21.9999 16.7836C21.9868 17.3883 21.8238 17.979 21.5267 18.5015C21.2678 18.9675 20.9512 19.3975 20.5847 19.7811C20.1823 20.2113 19.7379 20.5987 19.2586 20.9374L19.2508 20.9429C19.1332 21.0223 18.9963 21.0638 18.8573 21.0638C18.7183 21.0638 18.5814 21.0222 18.4638 20.9428L18.4559 20.9375C17.9766 20.5988 17.5323 20.2113 17.1298 19.7811C16.7634 19.3975 16.4467 18.9675 16.1878 18.5015C15.8907 17.9791 15.7276 17.3883 15.7144 16.7837L15.7142 16.7731C15.7142 15.9204 16.0486 15.1055 16.6393 14.5067C17.2296 13.9084 18.0276 13.5745 18.8571 13.5745C19.6867 13.5745 20.4847 13.9084 21.075 14.5067C21.6657 15.1055 22 15.9204 22 16.7731L21.9999 16.7836ZM16.5752 18.2648C16.8151 18.6971 17.109 19.0963 17.4496 19.4525C17.8312 19.8607 18.2528 20.2284 18.7079 20.5499C18.7521 20.5798 18.8041 20.5957 18.8573 20.5957C18.9104 20.5957 18.9624 20.5798 19.0066 20.5499C19.4617 20.2284 19.8833 19.8607 20.265 19.4525C20.6055 19.0963 20.8994 18.6971 21.1394 18.2648C21.3981 17.8105 21.5397 17.2975 21.551 16.7731C21.551 16.0489 21.2672 15.3544 20.762 14.8423C20.2568 14.3302 19.5716 14.0426 18.8571 14.0426C18.1427 14.0426 17.4575 14.3302 16.9523 14.8423C16.4471 15.3544 16.1633 16.0489 16.1633 16.7731C16.1747 17.2975 16.3163 17.8105 16.5752 18.2648ZM16.702 16.7731C16.702 18.2511 18.3453 19.6027 18.8571 19.9872C19.369 19.603 21.0122 18.2514 21.0122 16.7731C21.0123 16.341 20.8859 15.9187 20.6491 15.5594C20.4123 15.2002 20.0757 14.9202 19.6819 14.7549C19.2881 14.5895 18.8547 14.5463 18.4367 14.6306C18.0186 14.7148 17.6346 14.9229 17.3332 15.2284C17.1325 15.4308 16.9733 15.6715 16.865 15.9367C16.7566 16.2018 16.7013 16.4861 16.702 16.7731ZM18.8572 19.4002C18.5947 19.1833 18.244 18.8648 17.9268 18.4835C17.4737 17.9389 17.151 17.3402 17.151 16.7731L17.151 16.7717C17.1504 16.5485 17.1935 16.3271 17.278 16.1201C17.3626 15.9131 17.4873 15.7243 17.6453 15.5649L17.6462 15.564C17.884 15.3229 18.1886 15.1573 18.5219 15.0901C18.8554 15.0229 19.2008 15.0575 19.5142 15.1891C19.8274 15.3206 20.0931 15.5424 20.279 15.8245C20.4649 16.1065 20.5633 16.4366 20.5633 16.7731C20.5633 17.3404 20.2406 17.9391 19.7875 18.4837C19.4703 18.865 19.1197 19.1834 18.8572 19.4002Z"
    fill="#000F9F" />
  <path
    d="M19.7551 16.8511C19.7551 17.3681 19.3531 17.7872 18.8571 17.7872C18.3612 17.7872 17.9592 17.3681 17.9592 16.8511C17.9592 16.334 18.3612 15.9149 18.8571 15.9149C19.3531 15.9149 19.7551 16.334 19.7551 16.8511Z"
    fill="#000F9F" />
  <path
    d="M4.93888 0.468085C6.12965 0.468085 7.27165 0.961249 8.11365 1.83909C8.95565 2.71692 9.42868 3.90752 9.42868 5.14897C9.40978 6.04793 9.17383 6.92741 8.74264 7.70614C8.34269 8.44728 7.85287 9.13163 7.28525 9.74233C6.64923 10.442 5.94655 11.0723 5.18807 11.6236C5.11433 11.6748 5.02771 11.7021 4.93911 11.7021C4.8505 11.7021 4.76388 11.6748 4.69015 11.6236C3.93167 11.0723 3.22898 10.442 2.59297 9.74233C2.02535 9.13163 1.53552 8.44728 1.13558 7.70614C0.704231 6.92745 0.468127 6.04797 0.449089 5.14897C0.449089 3.90752 0.92212 2.71692 1.76412 1.83909C2.60612 0.961249 3.74812 0.468085 4.93888 0.468085ZM4.93888 10.6588C5.79194 10.0002 8.53072 7.6832 8.53072 5.14897C8.53074 4.40832 8.3201 3.68429 7.92543 3.06845C7.53075 2.45261 6.96978 1.97262 6.31344 1.68918C5.6571 1.40574 4.93488 1.33159 4.23812 1.47609C3.54135 1.62059 2.90133 1.97726 2.39901 2.50099C2.06444 2.84793 1.7992 3.26061 1.61863 3.71513C1.43806 4.16966 1.34575 4.65701 1.34705 5.14897C1.34705 7.68274 4.08582 9.99978 4.93888 10.6588Z"
    fill="#000F9F" />
  <path fill-rule="evenodd" clip-rule="evenodd"
    d="M9.87755 5.15923C9.85701 6.13597 9.60086 7.09158 9.13274 7.93789C8.71452 8.71244 8.20255 9.42774 7.60941 10.0662C6.95288 10.7882 6.22762 11.4386 5.44483 12.0076L5.43708 12.0132C5.28961 12.1156 5.11631 12.1702 4.93911 12.1702C4.7619 12.1702 4.58866 12.1156 4.44119 12.0131L4.43333 12.0076C3.65053 11.4387 2.92533 10.7882 2.26881 10.0662C1.67568 9.42775 1.16372 8.71247 0.745506 7.93793C0.277222 7.09168 0.0209041 6.13608 0.0002188 5.1593L0 5.14897C0 3.78338 0.520442 2.47372 1.44664 1.5081C2.37284 0.54248 3.62904 0 4.93888 0C6.24873 0 7.50493 0.54248 8.43112 1.5081C9.35732 2.47372 9.87766 3.78338 9.87766 5.14897L9.87755 5.15923ZM1.13558 7.70614C1.53552 8.44728 2.02535 9.13163 2.59297 9.74233C3.22898 10.442 3.93167 11.0723 4.69015 11.6236C4.76388 11.6748 4.8505 11.7021 4.93911 11.7021C5.02771 11.7021 5.11433 11.6748 5.18807 11.6236C5.94655 11.0723 6.64923 10.442 7.28525 9.74233C7.85287 9.13163 8.34269 8.44728 8.74264 7.70614C9.17383 6.92741 9.40978 6.04793 9.42868 5.14897C9.42868 3.90752 8.95565 2.71692 8.11365 1.83909C7.27165 0.961249 6.12965 0.468085 4.93888 0.468085C3.74812 0.468085 2.60612 0.961249 1.76412 1.83909C0.92212 2.71692 0.449089 3.90752 0.449089 5.14897C0.468127 6.04797 0.704231 6.92745 1.13558 7.70614ZM2.39901 2.50099C2.06444 2.84793 1.7992 3.26061 1.61863 3.71513C1.43806 4.16966 1.34575 4.65701 1.34705 5.14897C1.34705 7.68274 4.08582 9.99978 4.93888 10.6588C5.79194 10.0002 8.53072 7.6832 8.53072 5.14897C8.53074 4.40832 8.3201 3.68429 7.92543 3.06845C7.53075 2.45261 6.96978 1.97262 6.31344 1.68918C5.6571 1.40574 4.93488 1.33159 4.23812 1.47609C3.54135 1.62059 2.90133 1.97726 2.39901 2.50099ZM4.93896 10.0699C5.39677 9.69476 6.0901 9.07375 6.71146 8.30552C7.48065 7.35453 8.08174 6.24885 8.08174 5.14897C8.08176 4.5009 7.89745 3.86736 7.55211 3.3285C7.20677 2.78964 6.71591 2.36964 6.14162 2.12164C5.56732 1.87363 4.93538 1.80874 4.32571 1.93518C3.71604 2.06162 3.15603 2.3737 2.71649 2.83197L2.71563 2.83287C2.42316 3.13615 2.19129 3.49691 2.03344 3.89425C1.87559 4.29158 1.79489 4.71762 1.79603 5.14769L1.79603 5.14897C1.79603 6.24859 2.39709 7.35415 3.1663 8.30517C3.7877 9.07344 4.48109 9.69457 4.93896 10.0699Z"
    fill="#000F9F" />
  <path
    d="M6.7348 5.14894C6.7348 6.183 5.93074 7.02128 4.93888 7.02128C3.94703 7.02128 3.14297 6.183 3.14297 5.14894C3.14297 4.11487 3.94703 3.2766 4.93888 3.2766C5.93074 3.2766 6.7348 4.11487 6.7348 5.14894Z"
    fill="#000F9F" />
</svg>