<svg xmlns="http://www.w3.org/2000/svg" width="24" height="24" viewBox="0 0 24 24" fill="none">
  <path
    d="M6.1732 23C5.86533 23 5.60726 22.8941 5.399 22.6822C5.19073 22.4704 5.0866 22.2079 5.0866 21.8947V19.6289C4.76062 19.2605 4.49803 18.8507 4.29882 18.3993C4.09961 17.948 4 17.4553 4 16.9211V6.42105C4 4.89211 4.69724 3.77303 6.09171 3.06382C7.48618 2.35461 9.68655 2 12.6928 2C15.8077 2 17.2746 2.34079 18.6148 3.02237C19.9549 3.70395 20.625 4.83684 20.625 6.42105V16.9211C20.625 17.4553 20.5254 17.948 20.3262 18.3993C20.127 18.8507 19.8644 19.2605 19.5384 19.6289V21.8947C19.5384 22.2079 19.4343 22.4704 19.226 22.6822C19.0177 22.8941 18.7597 23 18.4518 23H17.3652C17.0573 23 16.7993 22.8941 16.591 22.6822C16.3827 22.4704 16.2786 22.2079 16.2786 21.8947V20.7895H8.34641V21.8947C8.34641 22.2079 8.24227 22.4704 8.03401 22.6822C7.82574 22.8941 7.56767 23 7.2598 23H6.1732ZM6.1732 10.8421H18.4518V7.52632H6.1732V10.8421ZM8.88971 17.4737C9.34246 17.4737 9.7273 17.3125 10.0442 16.9901C10.3611 16.6678 10.5196 16.2763 10.5196 15.8158C10.5196 15.3553 10.3611 14.9638 10.0442 14.6414C9.7273 14.3191 9.34246 14.1579 8.88971 14.1579C8.43696 14.1579 8.05212 14.3191 7.73519 14.6414C7.41827 14.9638 7.2598 15.3553 7.2598 15.8158C7.2598 16.2763 7.41827 16.6678 7.73519 16.9901C8.05212 17.3125 8.43696 17.4737 8.88971 17.4737ZM15.7353 17.4737C16.188 17.4737 16.5729 17.3125 16.8898 16.9901C17.2067 16.6678 17.3652 16.2763 17.3652 15.8158C17.3652 15.3553 17.2067 14.9638 16.8898 14.6414C16.5729 14.3191 16.188 14.1579 15.7353 14.1579C15.2825 14.1579 14.8977 14.3191 14.5808 14.6414C14.2639 14.9638 14.1054 15.3553 14.1054 15.8158C14.1054 16.2763 14.2639 16.6678 14.5808 16.9901C14.8977 17.3125 15.2825 17.4737 15.7353 17.4737ZM6.66217 5.31579H18.0715C17.7998 5.00263 17.2158 4.74013 16.3193 4.52829C15.4229 4.31645 14.7392 4.21053 12.7471 4.21053C10.8094 4.21053 9.39226 4.32566 8.49581 4.55592C7.59937 4.78618 6.98815 5.03947 6.66217 5.31579ZM8.34641 18.5789H16.2786C16.8762 18.5789 17.3878 18.3625 17.8134 17.9296C18.239 17.4967 18.4518 16.9763 18.4518 16.3684V13.0526H6.1732V16.3684C6.1732 16.9763 6.386 17.4967 6.81158 17.9296C7.23717 18.3625 7.74878 18.5789 8.34641 18.5789Z"
    fill="#000F9F" />
</svg>