<svg xmlns="http://www.w3.org/2000/svg" width="20" height="20" viewBox="0 0 20 20" fill="none">
  <path fill-rule="evenodd" clip-rule="evenodd"
    d="M6.56537 1.7674C6.78712 1.64068 7.05754 1.63317 7.28598 1.74739L13.0314 4.62012L18.0237 1.7674C18.2601 1.6323 18.5506 1.63327 18.7861 1.76994C19.0216 1.90662 19.1666 2.15833 19.1666 2.43064V14.6529C19.1666 14.927 19.0197 15.1801 18.7817 15.3161L13.4345 18.3717C13.2127 18.4984 12.9423 18.5059 12.7139 18.3917L6.9684 15.5189L1.97614 18.3717C1.73971 18.5068 1.44924 18.5058 1.21372 18.3691C0.978206 18.2324 0.833252 17.9807 0.833252 17.7084V5.48619C0.833252 5.21207 0.980137 4.95896 1.21815 4.82295L6.56537 1.7674ZM7.70825 14.1808L12.2916 16.4724V5.9583L7.70825 3.66664V14.1808ZM6.18047 3.74696V14.2096L2.36103 16.3921V5.9295L6.18047 3.74696ZM13.8194 5.9295V16.3921L17.6388 14.2096V3.74696L13.8194 5.9295Z"
    fill="#00095F" />
  <path d="M1.20106 11.683L3.69304 10.2509L4.12487 11.0333L1.63289 12.4654L1.20106 11.683Z"
    fill="#00095F" />
  <path d="M13.2495 11.7589L10.7575 10.3268L10.3257 11.1092L12.8177 12.5413L13.2495 11.7589Z"
    fill="#00095F" />
  <path d="M13.0811 11.5743L14.3996 10.8165L14.8314 11.5989L13.5129 12.3567L13.0811 11.5743Z"
    fill="#00095F" />
  <path d="M17.3058 12.0285L15.5762 9.70422L14.8754 10.2472L16.6049 12.5715L17.3058 12.0285Z"
    fill="#00095F" />
  <path d="M14.8548 11.9987L16.6348 9.71445L17.3236 10.2733L15.5436 12.5576L14.8548 11.9987Z"
    fill="#00095F" />
  <path d="M4.28106 9.88708L6.77304 8.45499L7.20487 9.2374L4.71289 10.6695L4.28106 9.88708Z"
    fill="#00095F" />
  <path d="M10.0354 9.88581L7.35177 8.34357L6.91994 9.12598L9.60361 10.6682L10.0354 9.88581Z"
    fill="#00095F" />
</svg>