<svg xmlns="http://www.w3.org/2000/svg" viewBox="0 0 50 50" fill="none"><path fill-rule="evenodd" clip-rule="evenodd" d="M29.729 5.954A12.452 12.452 0 0 1 43.34 8.671 12.538 12.538 0 0 1 47 17.533a12.567 12.567 0 0 1-3.66 8.862l-16.982 17.04a1.917 1.917 0 0 1-2.717 0L6.658 26.395A12.554 12.554 0 0 1 3 17.533c0-3.324 1.316-6.511 3.658-8.861A12.468 12.468 0 0 1 15.49 5c3.312 0 6.49 1.32 8.832 3.67l.678.68.677-.679a12.488 12.488 0 0 1 4.052-2.718Zm4.78 2.901a8.62 8.62 0 0 0-6.114 2.542l-2.037 2.044a1.917 1.917 0 0 1-2.717 0l-2.036-2.043a8.633 8.633 0 0 0-6.115-2.542 8.633 8.633 0 0 0-6.115 2.542 8.692 8.692 0 0 0-2.533 6.135c0 2.302.911 4.509 2.533 6.136L25 39.346 40.623 23.67a8.678 8.678 0 0 0 2.534-6.136 8.7 8.7 0 0 0-2.534-6.135 8.62 8.62 0 0 0-6.115-2.543Z" fill="#0c534a"></path><path d="M44 23 25 41.5l-4-3-6-6.5-6.5-7L6 18l1-6.5 5-4 7.5.5 5.5 3.5 4-4h8.5l5 2 1.5 7V23Z" fill="#0c534a"></path></svg>