<svg xmlns="http://www.w3.org/2000/svg" width="20" height="20" viewBox="0 0 24 24" fill="none">
  <g clip-path="url(#clip0_531_4645)">
    <path fill-rule="evenodd" clip-rule="evenodd"
      d="M12 2.4C6.39001 2.4 2.4 6.39001 2.4 12C2.4 17.61 6.39001 21.6 12 21.6C17.61 21.6 21.6 17.61 21.6 12C21.6 6.39001 17.61 2.4 12 2.4ZM0 12C0 5.37258 5.37258 0 12 0C18.6274 0 24 5.37258 24 12C24 18.6274 18.6274 24 12 24C5.37258 24 0 18.6274 0 12Z"
      fill="#000F9F" />
    <path fill-rule="evenodd" clip-rule="evenodd"
      d="M16.608 10.776C16.608 10.272 16.2 9.864 15.696 9.864C15.192 9.864 14.784 10.272 14.784 10.776V12.312C14.784 13.848 13.536 15.072 12.024 15.072C10.488 15.072 9.264 13.824 9.264 12.312V10.776C9.264 10.272 8.856 9.864 8.352 9.864C7.848 9.864 7.44 10.272 7.44 10.776V14.784H5.592V10.776C5.592 9.24 6.84 8.016 8.352 8.016C9.888 8.016 11.112 9.264 11.112 10.776V12.312C11.112 12.816 11.52 13.224 12.024 13.224C12.528 13.224 12.936 12.816 12.936 12.312V10.776C12.936 9.24 14.184 8.016 15.696 8.016C17.232 8.016 18.456 9.264 18.456 10.776V14.784H16.608V10.776Z"
      fill="#000F9F" />
  </g>
  <defs>
    <clipPath id="clip0_531_4645">
      <rect width="24" height="24" fill="white" />
    </clipPath>
  </defs>
</svg>