<svg xmlns="http://www.w3.org/2000/svg" viewBox="0 0 50 50" fill="none" style="fill: rgb(0, 9, 95);"><path fill-rule="evenodd" clip-rule="evenodd" d="M11.35 7.198C15.249 5.115 20.22 4.167 25 4.167c4.78 0 9.751.948 13.649 3.03 3.929 2.1 7.184 5.638 7.184 10.732v24.776a3.12 3.12 0 0 1-.92 2.212c-.59.587-1.39.916-2.224.916H7.31a3.137 3.137 0 0 1-3.144-3.128V17.929c0-5.094 3.255-8.632 7.184-10.731ZM25 7.295c-4.422 0-8.845.886-12.161 2.658-3.32 1.774-5.528 4.434-5.528 7.976v24.776h35.377V17.93c0-3.542-2.207-6.201-5.527-7.976C33.844 8.181 29.422 7.295 25 7.295Z" fill="#0c534a"></path><path d="M14.097 44.834v-1.81l2.73-1.812c-1.79 0-3.299-.61-4.528-1.833-1.229-1.223-1.843-2.725-1.843-4.506V17.668c0-2.506 1.168-4.34 3.504-5.502 2.337-1.162 6.024-1.743 11.06-1.743 5.22 0 8.952.559 11.197 1.676 2.245 1.117 3.368 2.973 3.368 5.569v17.205c0 1.781-.614 3.283-1.843 4.506-1.229 1.222-2.739 1.833-4.529 1.833l2.731 1.811v1.811H14.097Zm0-19.922H23.2V19.48h-9.103v5.433Zm12.744 0h9.103V19.48h-9.103v5.433ZM18.648 35.78a2.64 2.64 0 0 0 1.935-.792c.53-.529.796-1.17.796-1.925 0-.754-.265-1.396-.796-1.924a2.64 2.64 0 0 0-1.934-.792 2.64 2.64 0 0 0-1.935.792 2.613 2.613 0 0 0-.796 1.924c0 .755.265 1.396.796 1.925a2.64 2.64 0 0 0 1.934.792Zm12.745 0a2.64 2.64 0 0 0 1.934-.792c.531-.529.797-1.17.797-1.925 0-.754-.266-1.396-.797-1.924a2.64 2.64 0 0 0-1.934-.792 2.64 2.64 0 0 0-1.935.792 2.613 2.613 0 0 0-.796 1.924c0 .755.265 1.396.796 1.925a2.64 2.64 0 0 0 1.935.792ZM16.828 37.59h16.385c.79 0 1.441-.257 1.957-.77s.774-1.162.774-1.947v-6.338H14.097v6.338c0 .785.258 1.434.774 1.947.516.514 1.168.77 1.957.77Zm8.192-23.544c-2.609 0-4.77.15-6.485.452-1.715.302-2.92.755-3.619 1.359h20.39c-.545-.604-1.676-1.057-3.39-1.359-1.714-.301-4.013-.452-6.896-.452Z" fill="#0c534a"></path></svg>