<svg xmlns="http://www.w3.org/2000/svg" viewBox="0 0 50 50" fill="none">
  <path d="M7 35.8267V16.3949C7 13.0881 8.48971 10.9233 11.4691 9.90057C14.4485 8.87784 18.559 8.23864 22.4147 8.13636L23.9921 5.06818H14.0023V2H35.0334V5.06818H28.1983L26.621 8.13636C30.7922 8.23864 34.9458 8.86932 37.7675 9.875C40.5892 10.8807 42 13.054 42 16.3949V26.1108V35.8267C42 37.8381 41.2902 39.5341 39.8706 40.9148C38.451 42.2955 36.0499 42.9091 33.9819 42.9091L37.1366 45.9773V47H32.9303L28.7241 42.9091H20.3116L16.1054 47H11.8992V45.9773L15.0538 42.9091C12.9858 42.9091 10.549 42.2955 9.1294 40.9148C7.7098 39.5341 7 37.8381 7 35.8267ZM24.5179 36.7727C25.3942 36.7727 26.139 36.4744 26.7524 35.8778C27.3658 35.2812 27.6725 34.5568 27.6725 33.7045C27.6725 32.8523 27.3658 32.1278 26.7524 31.5312C26.139 30.9347 25.3942 30.6364 24.5179 30.6364C23.6416 30.6364 22.8967 30.9347 22.2833 31.5312C21.6699 32.1278 21.3632 32.8523 21.3632 33.7045C21.3632 34.5568 21.6699 35.2812 22.2833 35.8778C22.8967 36.4744 23.6416 36.7727 24.5179 36.7727ZM11.8992 24.5H37.1366V18.3636H11.8992V24.5ZM15.0538 38.8182H33.9819C34.8932 38.8182 35.6468 38.5284 36.2427 37.9489C36.8386 37.3693 37.1366 36.6364 37.1366 35.75V28.5909H11.8992V35.75C11.8992 36.6364 12.1971 37.3693 12.793 37.9489C13.3889 38.5284 14.1425 38.8182 15.0538 38.8182ZM24.4127 12.2273C19.7157 12.2273 16.7013 12.4744 15.3693 12.9688C14.0373 13.4631 13.161 13.8977 12.7404 14.2727H36.4005C35.9798 13.7955 35.0685 13.3352 33.6664 12.892C32.2643 12.4489 29.1798 12.2273 24.4127 12.2273Z" fill="#A2874F"/>
</svg>