<svg xmlns="http://www.w3.org/2000/svg" width="16" height="16" viewBox="0 0 16 16" fill="none">
  <path fill-rule="evenodd" clip-rule="evenodd" d="M5.25278 1.91904C5.62785 1.54397 6.13656 1.33325 6.66699 1.33325H9.33366C9.86409 1.33325 10.3728 1.54397 10.7479 1.91904C11.1229 2.29411 11.3337 2.80282 11.3337 3.33325V3.99992H13.3337C14.4382 3.99992 15.3337 4.89535 15.3337 5.99992V12.6666C15.3337 13.7712 14.4382 14.6666 13.3337 14.6666H2.66699C1.56242 14.6666 0.666992 13.7712 0.666992 12.6666V5.99992C0.666992 4.89535 1.56242 3.99992 2.66699 3.99992H4.66699V3.33325C4.66699 2.80282 4.87771 2.29411 5.25278 1.91904ZM4.66699 5.33325H2.66699C2.2988 5.33325 2.00033 5.63173 2.00033 5.99992V12.6666C2.00033 13.0348 2.2988 13.3333 2.66699 13.3333H4.66699V5.33325ZM6.00033 13.3333V5.33325H10.0003V13.3333H6.00033ZM11.3337 13.3333H13.3337C13.7018 13.3333 14.0003 13.0348 14.0003 12.6666V5.99992C14.0003 5.63173 13.7018 5.33325 13.3337 5.33325H11.3337V13.3333ZM10.0003 3.99992H6.00033V3.33325C6.00033 3.15644 6.07056 2.98687 6.19559 2.86185C6.32061 2.73682 6.49018 2.66659 6.66699 2.66659H9.33366C9.51047 2.66659 9.68004 2.73682 9.80506 2.86185C9.93009 2.98687 10.0003 3.15644 10.0003 3.33325V3.99992Z" fill="#000F9F"/>
</svg>