<svg xmlns="http://www.w3.org/2000/svg" width="136.161" height="70" viewBox="0 0 136.161 70"><defs><style>.a{fill:#fff;}</style></defs><g transform="translate(-372.165 -272.936)"><path class="a" d="M508.326,342.936H372.165v-70H508.326ZM375.85,339.253H504.641V276.621H375.85Z" transform="translate(0)"/><g transform="translate(392.566 294.069)"><path class="a" d="M393.393,315.276h-6.656V288.031h9.845c6.815,0,10.28,4.2,10.28,9.342s-3.465,9.537-10.28,9.537h-3.189Zm0-21.444v7.277h1.869c2.723,0,4.747-.935,4.747-3.737,0-2.764-2.024-3.541-4.747-3.541Z" transform="translate(-386.737 -288.031)"/><path class="a" d="M401.112,303.729a9.731,9.731,0,1,1,9.73,9.537A9.418,9.418,0,0,1,401.112,303.729Zm6.226,0a3.519,3.519,0,1,0,3.5-3.854A3.537,3.537,0,0,0,407.338,303.729Z" transform="translate(-380.987 -285.551)"/><path class="a" d="M428.112,299.733h-2.257c-2.688,0-3.388,2.325-3.388,4.621v8.327h-6.229v-18.1h5.993v2.88c.374-2.059,1.7-2.947,2.9-2.947.465,0,2.976.067,2.976.067Z" transform="translate(-374.936 -285.437)"/><path class="a" d="M434.949,289.95v6.461h3.622v5.1h-3.622v6.574c0,1.053.9,1.208,1.6,1.208a16.487,16.487,0,0,0,2.023-.118v5.331s-2.919.235-4.441.235c-2.919,0-5.408-.818-5.408-4.554v-8.667h-2.685v-5.111h2.685V289.95Z" transform="translate(-371.017 -287.263)"/><path class="a" d="M435.929,303.729a9.732,9.732,0,1,1,9.73,9.537A9.417,9.417,0,0,1,435.929,303.729Zm6.227,0a3.519,3.519,0,1,0,3.5-3.854A3.537,3.537,0,0,0,442.156,303.729Z" transform="translate(-367.06 -285.551)"/><path class="a" d="M454.447,302.239a3.912,3.912,0,1,1-3.892,3.931A3.918,3.918,0,0,1,454.447,302.239Z" transform="translate(-361.21 -282.348)"/></g></g></svg>